<svg xmlns="http://www.w3.org/2000/svg" viewBox="0 0 128 128" width="128px" height="128px">
  <path fill="#007396" d="M119.24 116.93H8.76a4.91 4.91 0 0 1-4.91-4.91V15.98a4.91 4.91 0 0 1 4.91-4.91h110.48a4.91 4.91 0 0 1 4.91 4.91v95.04a4.91 4.91 0 0 1-4.91 4.91z"></path>
  <path fill="#fff" d="M39.15 38.51h14.33v45.46c0 12.5-8.61 20.76-19.22 20.76S14.03 96.47 14.03 84.09V38.51h14.33v45.46c0 5.67 3.65 8.94 8.39 8.94 4.89 0 8.31-3.58 8.31-8.94V38.51zm55.43-8.83c8.24 0 12.85 5.28 12.85 12.43v39.86c0 12.48-8.67 21.03-19.27 21.03-10.18 0-18.35-7.29-18.35-18.47V46.64h14.33v4.82h.21c3.47-4.05 8.5-6.4 13.83-6.4zm-10.42 22.58h-9.07V78.2c0 4.86 3 7.66 7.32 7.66 4.61 0 7.75-3.38 7.75-7.77V52.26zm25.22-15.25h-9.07v13.56h9.07c5.6 0 9.89 3.21 9.89 8.86 0 5.58-4.21 8.93-9.89 8.93h-5.76v15.25H110V37.01zm-18.27 0h-14.1v14.68h5.78v1.14c-1.14 2.85-4.1 4.89-7.78 4.89-4.86 0-8.79-3.66-8.79-8.89v-11.8H71.51v-3.12c0-8.78 5.94-14.73 14.09-14.73 4.47 0 8.17 1.67 11.15 4.93l4.75-5.4c-4.48-4.45-9.94-7.21-16.93-7.21-13.47 0-22.75 9.36-22.75 22.51v11.96h-5.57v-14.7h14.08V37.01zM63.33 22.25l-3.88 4.41h7.76l-3.88-4.41z"></path>
</svg>
